<svg width="120" height="120" viewBox="0 0 120 120" fill="none" xmlns="http://www.w3.org/2000/svg">
<rect width="120" height="120" rx="10" fill="#CBA6F7"/>
<path d="M37.8101 61.8343L36.482 41.8079V41.8069L36.4683 41.5423C36.4223 40.2275 36.7319 39.0481 37.3492 38.1839L37.3482 38.1829C38.0214 37.2484 39.0008 36.7066 40.2222 36.6224L40.2213 36.6214C40.3448 36.6149 40.4512 36.6106 40.5562 36.6106C41.7114 36.6107 42.6812 37.0474 43.3902 37.8167C44.0582 38.5415 44.5093 39.5782 44.6451 40.8606L44.6685 41.1204C44.669 41.1301 44.6689 41.1389 44.6695 41.1458C44.6705 41.1574 44.6717 41.1686 44.6724 41.1751C44.6733 41.1831 44.6742 41.1864 44.6744 41.1888V41.2073L44.6783 41.2327L47.0611 56.1897V56.1917C47.164 56.8089 47.6958 57.2768 48.3306 57.2776V57.2786C54.4485 57.3109 62.6155 58.0793 69.6392 59.2747L69.6529 59.2766C69.7046 59.2831 69.781 59.2923 69.855 59.2923C70.1303 59.2923 70.3984 59.2062 70.6226 59.0423L70.6217 59.0413C70.9109 58.8307 71.0914 58.51 71.1343 58.1604L74.8316 28.8743L74.8345 28.8538V28.844C74.8357 28.8356 74.8374 28.8102 74.8384 28.7786L74.8404 28.7796C74.9151 27.3806 75.3614 26.2553 76.0582 25.4847C76.7513 24.7183 77.7103 24.2825 78.8619 24.2825L79.1168 24.2874L79.1226 24.2884C80.3209 24.3547 81.2975 24.8676 81.9615 25.762V25.763C82.6193 26.654 82.9565 27.9003 82.8834 29.2825L80.4615 61.8059V61.8069C80.4357 62.1686 80.5641 62.5316 80.817 62.7933V62.7923C82.3838 64.4404 83.5231 67.4408 83.817 71.0979C84.0916 74.5169 83.6228 78.4724 82.106 82.3528L81.7886 83.1282V83.1292C80.7177 85.6451 78.7767 88.9977 75.4019 91.72C72.0324 94.4381 67.2155 96.5422 60.3629 96.5423C53.6987 96.5423 48.0662 94.0951 44.0992 89.9075C40.1309 85.7186 37.8101 79.768 37.8101 72.7337V61.8343Z" fill="url(#paint0_radial_4_2)" stroke="#11111B" stroke-width="0.647494"/>
<path d="M78.8682 24.4424C77.5279 24.4424 76.5631 25.0543 75.9395 25.9189C75.4059 26.6588 75.1277 27.5718 75.0361 28.4326L75.0078 28.7979V28.8213C75.0078 28.8225 75.0078 28.8271 75.0068 28.8359C75.0055 28.8483 75.0034 28.862 75 28.8857L74.999 28.8945L71.3018 58.1865L71.3008 58.1885C71.259 58.5266 71.0968 58.8371 70.8428 59.0684L70.7285 59.1621L70.7266 59.1641C70.48 59.3489 70.1786 59.4462 69.8682 59.4463C69.8226 59.4463 69.7797 59.4444 69.7393 59.4414L69.625 59.4277L69.6221 59.4268L68.2939 59.208C61.5953 58.1388 54.0705 57.4631 48.335 57.4326H48.3359C47.6716 57.4281 47.1018 56.974 46.9424 56.3438L46.916 56.2158L44.5332 41.2588L44.5293 41.2373L44.5244 41.2158L44.5107 41.1133C44.4417 40.1485 44.1422 39.0807 43.5176 38.2383C42.8748 37.3716 41.8946 36.7578 40.543 36.7578L40.1992 36.7715L40.1973 36.7725C38.8264 36.8685 37.8471 37.5576 37.248 38.5225C36.7337 39.3509 36.5067 40.3661 36.5117 41.3662L36.5283 41.793L37.7383 61.5449C37.7315 61.5542 37.7235 61.5637 37.7168 61.5742C37.683 61.6276 37.6338 61.7255 37.6338 61.8564V72.7344C37.6339 79.0535 39.7367 84.841 43.3877 89.0957L43.7461 89.502V89.5029C47.8349 94.0239 53.6621 96.4014 60.3242 96.4014C67.0818 96.4013 71.8874 94.3263 75.2715 91.6084C78.4364 89.0665 80.3342 85.9814 81.4355 83.5645L81.6455 83.0908V83.0898C83.1249 79.6359 83.8507 75.7429 83.7178 72.04L83.6797 71.3018V71.3008C83.4439 67.8601 82.4525 64.8678 80.875 63.0859L80.7197 62.917L80.7168 62.9131L80.6182 62.7998C80.4049 62.5241 80.3001 62.1718 80.3252 61.8154L82.7471 29.292V29.2803C82.7989 28.2635 82.6245 27.114 82.0693 26.1826C81.4995 25.2268 80.5408 24.5268 79.1221 24.4492L79.1211 24.4502C79.0249 24.4429 78.933 24.4424 78.8682 24.4424ZM36.6914 61.8418L36.6904 61.8271L35.5186 41.8643V41.8584L35.5029 41.5615C35.4075 38.5116 37.2038 36.0427 40.1504 35.834L40.1494 35.833C40.2961 35.8266 40.4238 35.8223 40.5498 35.8223C43.3613 35.8225 45.2432 38.0198 45.457 41.0742L45.459 41.0957L45.4619 41.1182L47.8447 56.0752L47.9121 56.4941L48.3359 56.4961C54.9914 56.5283 63.2454 57.3863 69.7773 58.5029L70.292 58.5908L70.3574 58.0723L74.0547 28.7803L74.0566 28.7627L74.0576 28.7441C74.1401 27.2276 74.6485 25.9125 75.4727 24.9844C76.2904 24.0636 77.4384 23.5 78.8682 23.5L79.1562 23.5059H79.1572C80.6748 23.5913 81.8267 24.2753 82.5879 25.3086C83.3544 26.3492 83.7423 27.771 83.6592 29.3398L81.2051 61.8828L81.1885 62.1045L81.3418 62.2656C83.0676 64.0798 84.2069 67.1609 84.5156 70.8281C84.8233 74.4822 84.3001 78.6544 82.7705 82.5898C79.7206 90.4369 72.6803 97.3368 60.2012 97.3369C52.8931 97.3369 47.0262 94.5678 42.9834 90.126C38.9358 85.6789 36.6915 79.5277 36.6914 72.7344V61.8418Z" fill="#EDA600" stroke="#11111B"/>
<path opacity="0.4" d="M58.9641 87.6458C69.803 87.6458 78.5897 81.0536 78.5897 72.9218C78.5897 64.7899 69.803 58.1978 58.9641 58.1978C48.1252 58.1978 39.3386 64.7899 39.3386 72.9218C39.3386 81.0536 48.1252 87.6458 58.9641 87.6458Z" fill="url(#paint1_radial_4_2)"/>
<path d="M65.5602 75.392C67.7138 74.3452 70.2087 74.5614 72.5612 75.2523V75.2533C72.7249 75.3019 72.8029 75.3884 72.8434 75.4759C72.8893 75.5753 72.9012 75.7093 72.8639 75.8451C72.8265 75.981 72.7499 76.0838 72.6666 76.139C72.5953 76.1863 72.4907 76.219 72.3258 76.1713H72.3248C70.5545 75.6472 68.5808 75.3176 66.6871 75.9632L66.3092 76.1048C64.3371 76.9167 63.2634 78.6742 62.4928 80.4007L62.1793 81.1361V81.1371C62.065 81.4165 61.7744 81.5251 61.485 81.4466C61.3458 81.4089 61.2616 81.3382 61.2252 81.2787C61.1994 81.2363 61.1693 81.1562 61.234 80.9974L61.233 80.9964C62.1656 78.7184 63.2767 76.6037 65.3561 75.4955L65.5602 75.392Z" fill="#EDA600" stroke="#11111B"/>
<path d="M64.9151 50.7974C65.0271 50.7974 65.1472 50.8017 65.2696 50.8081V50.8091C66.5612 50.8895 67.752 51.4273 68.5703 52.2779L68.7285 52.4517L68.7305 52.4536C69.3717 53.1906 69.6972 54.0897 69.6719 54.9937L69.6621 55.1743L68.6778 67.4243V67.4253C68.5124 69.526 66.4676 71.2378 63.9434 71.2378C63.8307 71.2378 63.71 71.2326 63.5869 71.2261H63.5879C62.2962 71.1457 61.1055 70.6081 60.2871 69.7573L60.1289 69.5835L60.128 69.5816L60.0039 69.4322C59.4448 68.7247 59.1629 67.8853 59.1865 67.0415L59.1963 66.8609L60.1807 54.6109C60.352 52.509 62.3979 50.7974 64.9151 50.7974Z" fill="url(#paint2_radial_4_2)" stroke="#11111B" stroke-width="0.647494"/>
<path d="M64.9147 50.0019C65.0506 50.0019 65.1815 50.008 65.3327 50.0146V50.0136C68.3372 50.2111 70.5297 52.4538 70.4704 54.9912L70.4577 55.2373L69.4733 67.4883C69.2713 70.0162 66.8805 72.0332 63.9431 72.0332C63.8072 72.0332 63.6763 72.0271 63.5251 72.0205H63.5241C60.5206 71.8225 58.3286 69.5816 58.3874 67.0449L58.4011 66.7978L59.3845 54.5468C59.5865 52.0189 61.9773 50.0019 64.9147 50.0019ZM64.9147 50.9443C62.6505 50.9443 60.6303 52.4001 60.3464 54.4238L60.3239 54.6211V54.622L59.3396 66.873V66.875C59.2597 67.9259 59.659 68.7401 60.0651 69.2763L60.239 69.4883V69.4892C61.0028 70.3631 62.1255 70.9192 63.3532 71.0556L63.6003 71.0771H63.6013C63.7022 71.0834 63.8213 71.0908 63.9431 71.0908C66.2775 71.0908 68.3649 69.5484 68.5339 67.4131L69.5183 55.1621V55.1601C69.6094 53.9599 69.0749 53.0694 68.6198 52.5478H68.6208C67.8622 51.672 66.7383 51.1168 65.5104 50.9804L65.2644 50.958H65.2614C65.1559 50.9518 65.0361 50.9443 64.9147 50.9443Z" fill="#EDA600" stroke="#11111B"/>
<path d="M52.4373 51.9694C54.9038 51.9694 56.9115 53.5258 57.2664 55.5524L57.2957 55.7496V55.7506L58.5134 65.8063C58.6244 66.7409 58.3711 67.6849 57.7898 68.482L57.6697 68.6393L57.6687 68.6403C56.8688 69.6385 55.6011 70.294 54.1902 70.4361C53.9961 70.4491 53.8209 70.4615 53.6414 70.4615C51.1749 70.4614 49.167 68.9041 48.8123 66.8776L48.783 66.6803L47.5662 56.6246C47.4476 55.628 47.743 54.626 48.4109 53.7897L48.4099 53.7887C49.1607 52.8521 50.3243 52.218 51.6306 52.026L51.8933 51.9928C52.0737 51.9748 52.2566 51.9694 52.4373 51.9694Z" fill="url(#paint3_radial_4_2)" stroke="#11111B" stroke-width="0.647494"/>
<path d="M52.4434 51.1674C55.2631 51.1674 57.6331 53.002 58.0577 55.4135L58.0918 55.6489L59.3096 65.7045C59.6218 68.3191 57.5765 70.7601 54.5625 71.185L54.2725 71.2192C54.0546 71.2378 53.8429 71.2494 53.6417 71.2494C50.8156 71.2494 48.4525 69.4211 48.0284 67.0043L47.9932 66.769L46.7764 56.7133C46.4538 54.0142 48.6431 51.5002 51.8174 51.1977L51.8165 51.1967C52.033 51.1782 52.2433 51.1674 52.4434 51.1674ZM52.4434 52.1098C52.3509 52.1098 52.2593 52.1133 52.1709 52.1186L51.918 52.1371L51.9112 52.1381C50.6457 52.258 49.4795 52.816 48.6856 53.6957L48.5333 53.8744C48.1139 54.3902 47.6322 55.2498 47.6983 56.3725L47.7198 56.601L48.9366 66.6557V66.6567C49.1951 68.7695 51.3207 70.3071 53.6485 70.3071C53.741 70.3071 53.8326 70.3036 53.9209 70.2983L54.1739 70.2797L54.1807 70.2787C55.5297 70.1509 56.7649 69.5249 57.5577 68.5424L57.5586 68.5434C57.9781 68.0276 58.4599 67.1675 58.3936 66.0444L58.3731 65.8158L57.1553 55.7612L57.126 55.5649C56.7645 53.5534 54.6987 52.1098 52.4434 52.1098Z" fill="#EDA600" stroke="#11111B"/>
<mask id="mask0_4_2" style="mask-type:luminance" maskUnits="userSpaceOnUse" x="51" y="61" width="33" height="23">
<path d="M55.9401 62.17L56.2858 62.1973C57.2664 62.3099 60.7442 62.3692 63.947 62.4014C65.5549 62.4176 67.1028 62.4274 68.2487 62.4327C68.8217 62.4353 69.2944 62.4366 69.6237 62.4376C69.7881 62.438 69.9169 62.4383 70.0046 62.4385H70.1061C70.1076 62.4388 70.1094 62.4392 70.111 62.4395C70.1322 62.4437 70.1641 62.4494 70.2058 62.4581C70.2896 62.4754 70.4135 62.5028 70.572 62.5391C70.8893 62.6118 71.3455 62.7238 71.8962 62.8799C72.9985 63.1926 74.4769 63.681 75.9851 64.3858C78.9325 65.7632 81.8837 67.9123 82.5212 71.086L82.5749 71.3965C82.9435 73.8619 82.9634 76.8718 82.1599 79.1866C81.7594 80.3401 81.1618 81.2999 80.3229 81.9424C79.5421 82.5405 78.5271 82.8825 77.2067 82.8262L76.9392 82.8096H76.9382C76.0213 82.7358 74.6742 82.1372 73.3894 81.0909C72.1919 80.1157 71.0837 78.7798 70.4548 77.1954L70.3356 76.8751C70.0991 76.196 69.7769 75.5651 69.2683 75.004C68.7594 74.4426 68.0772 73.966 67.1423 73.5743C65.2848 72.796 62.3969 72.3428 57.7858 72.2422H57.7868C55.3591 72.1871 52.8203 70.2896 52.1735 67.9346C51.8505 66.7582 51.9577 65.1962 52.613 63.9962C52.938 63.401 53.3933 62.9022 53.9899 62.5772C54.5105 62.2936 55.154 62.1341 55.9401 62.17Z" fill="white" stroke="white" stroke-width="0.647494"/>
</mask>
<g mask="url(#mask0_4_2)">
<path d="M55.7201 63.1386C55.7936 63.1386 55.8693 63.1398 55.9457 63.1435L56.1752 63.1621H56.1761C57.1195 63.268 60.1948 63.3276 63.1986 63.3622C66.14 63.3962 69.0443 63.4056 69.8968 63.4091C72.6767 64.4564 76.2243 66.1145 79.0951 67.956C80.5399 68.8828 81.8012 69.8487 82.7064 70.7978C83.5633 71.6963 84.0625 72.54 84.1468 73.291L84.1586 73.4394C84.318 77.4509 83.1739 80.9944 81.0697 83.1865C79.6663 84.6458 77.8782 85.4121 75.8959 85.4121C75.6305 85.412 75.3575 85.3981 75.0795 85.3701L74.7992 85.3369H74.7982C74.7807 85.3344 74.7146 85.3121 74.6 85.1953C74.4907 85.0839 74.3671 84.9178 74.2337 84.6972C73.9676 84.2568 73.6881 83.6482 73.4134 82.9648C73.0024 81.9419 72.613 80.779 72.3031 79.8154L72.0218 78.9296L71.6312 77.7001C71.567 77.5001 71.5036 77.3032 71.4398 77.1113L71.2484 76.5507C70.5959 74.6759 69.3506 73.3892 67.1966 72.5585C65.2006 71.7888 62.4176 71.4072 58.5863 71.2851L57.806 71.2646H57.805C56.791 71.2435 55.7474 70.8318 54.8861 70.1728C54.0783 69.5547 53.4512 68.7344 53.1595 67.8525L53.1058 67.6747C52.8502 66.7361 52.9065 65.3092 53.5697 64.2802L53.7113 64.08L53.7123 64.0781C54.182 63.4555 54.8457 63.1386 55.7201 63.1386Z" fill="url(#paint4_linear_4_2)" stroke="#11111B" stroke-width="0.647494"/>
<path d="M55.7204 62.3432C55.8121 62.3432 55.9023 62.3447 55.9919 62.349L56.2604 62.3715L56.2653 62.3725C57.2571 62.4864 60.7481 62.5453 63.945 62.5775C65.5534 62.5937 67.1016 62.6035 68.2477 62.6088C68.8209 62.6114 69.2943 62.6127 69.6237 62.6137C69.7882 62.6141 69.9169 62.6144 70.0046 62.6146C70.0206 62.6147 70.0353 62.6146 70.0485 62.6146C70.0713 62.6233 70.0987 62.6337 70.1306 62.6459C70.2393 62.6875 70.3997 62.7503 70.6042 62.8314C71.0131 62.9937 71.5989 63.2315 72.3024 63.5355C73.711 64.1442 75.5884 65.0137 77.4694 66.057C79.3544 67.1025 81.2231 68.3119 82.6276 69.5971C83.9609 70.8171 84.7961 72.0328 84.9352 73.1791L84.9538 73.4076C85.0929 76.9613 84.2412 80.1807 82.6491 82.4965C81.0641 84.8019 78.7491 86.2132 75.8962 86.2133C75.6061 86.2133 75.3092 86.1995 75.0056 86.1693L74.6999 86.1332H74.6989C74.424 86.0965 74.0716 85.847 73.6608 85.2357C73.2645 84.6459 72.8844 83.8257 72.5163 82.8715C72.1499 81.9217 71.805 80.8651 71.4714 79.8139C71.2225 79.0297 70.9792 78.2451 70.7399 77.5199L70.5016 76.8168C70.2598 76.1224 69.9269 75.4694 69.3981 74.8861C68.869 74.3024 68.165 73.8114 67.2106 73.4115C65.3209 72.6197 62.4049 72.1664 57.7897 72.0658H57.7907C55.5107 72.014 53.1223 70.2781 52.4069 68.1L52.3434 67.8881V67.8871L52.2917 67.682C52.058 66.6392 52.1589 65.3262 52.6745 64.2641C53.2111 63.1587 54.1807 62.3432 55.7204 62.3432ZM55.7204 63.2855C54.9765 63.2855 54.377 63.5224 53.9177 64.057L53.8278 64.1674L53.8259 64.1693C53.4406 64.6765 53.2372 65.3146 53.1569 65.9193C53.0865 66.4498 53.1064 66.9901 53.2038 67.4496L53.2507 67.641V67.642C53.5105 68.5831 54.1814 69.4371 54.9948 70.056C55.7584 70.637 56.6945 71.0473 57.6266 71.1146L57.8132 71.1234H57.8141C62.2836 71.2203 65.3639 71.6422 67.488 72.5072C69.4421 73.3031 70.5871 74.4731 71.2614 76.1605L71.3903 76.5053V76.5062C71.6461 77.2351 71.8952 78.0333 72.1686 78.8861V78.8871C72.4402 79.7469 72.8587 81.068 73.3073 82.2699C73.5315 82.8705 73.7662 83.4504 73.9977 83.932C74.1924 84.337 74.4067 84.7199 74.6345 84.9809L74.7331 85.0853L74.8542 85.2025L75.0222 85.2221C75.3229 85.257 75.6217 85.2709 75.903 85.2709C77.7459 85.2708 79.3686 84.6162 80.7067 83.3461L80.9704 83.0844C82.9608 81.0165 84.0306 77.7851 84.0309 74.1732L84.0163 73.4457V73.4428L83.9997 73.266C83.8608 72.2986 82.8232 70.1095 77.0515 66.9037H77.0524C74.006 65.2105 70.9316 63.9699 69.9587 63.5912L69.8718 63.558H69.779C68.6561 63.5548 65.6983 63.5426 62.7927 63.5062C60.2357 63.4742 57.7543 63.4235 56.5788 63.3441L56.1579 63.308H56.152C56.0066 63.2935 55.8605 63.2855 55.7204 63.2855Z" fill="#EDA600" stroke="#11111B"/>
</g>
<defs>
<radialGradient id="paint0_radial_4_2" cx="0" cy="0" r="1" gradientUnits="userSpaceOnUse" gradientTransform="translate(59.6006 24.8611) rotate(90.125) scale(71.0108 31.3797)">
<stop stop-color="#FFB300"/>
<stop offset="0.6888" stop-color="#FFCA28"/>
<stop offset="1" stop-color="#FFB300"/>
</radialGradient>
<radialGradient id="paint1_radial_4_2" cx="0" cy="0" r="1" gradientUnits="userSpaceOnUse" gradientTransform="translate(58.9628 72.9231) scale(17.349)">
<stop offset="0.3" stop-color="#FBC02D"/>
<stop offset="1" stop-color="#FFB300" stop-opacity="0"/>
</radialGradient>
<radialGradient id="paint2_radial_4_2" cx="0" cy="0" r="1" gradientUnits="userSpaceOnUse" gradientTransform="translate(65.0378 53.5813) rotate(94.2768) scale(16.9745 6.08664)">
<stop offset="0.5993" stop-color="#FFCA28"/>
<stop offset="1" stop-color="#FFB300"/>
</radialGradient>
<radialGradient id="paint3_radial_4_2" cx="0" cy="0" r="1" gradientUnits="userSpaceOnUse" gradientTransform="translate(52.2569 56.5543) rotate(82.4413) scale(12.6859 5.37975)">
<stop offset="0.5993" stop-color="#FFCA28"/>
<stop offset="1" stop-color="#FFB300"/>
</radialGradient>
<linearGradient id="paint4_linear_4_2" x1="64.2378" y1="62.6686" x2="78.5931" y2="83.449" gradientUnits="userSpaceOnUse">
<stop stop-color="#FFCA28"/>
<stop offset="1" stop-color="#FFB300"/>
</linearGradient>
</defs>
</svg>
